<svg id="Capa_1" data-name="Capa 1" xmlns="http://www.w3.org/2000/svg" viewBox="0 0 20.46 20.46"><defs><style>.cls-1{fill:#c42127;}</style></defs><path class="cls-1" d="M146.87,109.77l-1-.72a9.07,9.07,0,0,0-18.14,0l-1,.72a.31.31,0,0,0-.13.25v3.2a.31.31,0,0,0,.13.25l1.15.82a.35.35,0,0,0,.18,0h1.14a.29.29,0,0,0,.3-.3v-4.81h0a7.33,7.33,0,0,1,14.66,0V114a.3.3,0,0,0,.3.3h.27v.35a1.91,1.91,0,0,1-1.62,1.89,6.9,6.9,0,0,0,.58-2.76v-4.41a6.86,6.86,0,1,0-13.72,0v4.42a6.86,6.86,0,0,0,12.82,3.38h0a2.52,2.52,0,0,0,2.52-2.52v-.35h.27a.34.34,0,0,0,.17,0l1.15-.82a.31.31,0,0,0,.13-.25V110A.31.31,0,0,0,146.87,109.77Zm-10.1-6.61a6.27,6.27,0,0,1,6.26,6.25V111a4.44,4.44,0,0,1-.63,0A6.25,6.25,0,0,1,137,108a.31.31,0,0,0-.41-.11.38.38,0,0,0-.11.11,6.25,6.25,0,0,1-5.37,3.1,4.44,4.44,0,0,1-.63,0v-1.62A6.27,6.27,0,0,1,136.77,103.16Zm0,16.92a6.27,6.27,0,0,1-6.26-6.25v-2.19q.31,0,.63,0a6.81,6.81,0,0,0,5.63-3,6.83,6.83,0,0,0,5.63,3q.32,0,.63,0v2.19a6.28,6.28,0,0,1-.66,2.78h-2.82a1,1,0,0,0-.94-.68h-1.19a1,1,0,0,0,0,2h1.19a1,1,0,0,0,.94-.68H142A6.25,6.25,0,0,1,136.77,120.08Zm2.22-3.15a.38.38,0,0,1-.38.36h-1.19a.38.38,0,1,1,0-.76h1.19a.38.38,0,0,1,.38.36v0Zm-10.15-3.19h-.75l-.94-.67v-2.9l.94-.66h.75Zm7.93-12.3a8,8,0,0,0-7.92,7.47h-.55a8.48,8.48,0,0,1,16.94,0h-.55a8,8,0,0,0-7.92-7.47Zm9.63,11.63-1,.67h-.75v-4.23h.75l1,.66Z" transform="translate(-126.54 -100.22)"/></svg>