<svg id="Capa_1" data-name="Capa 1" xmlns="http://www.w3.org/2000/svg" xmlns:xlink="http://www.w3.org/1999/xlink" viewBox="0 0 28 20.7"><defs><style>.cls-1{fill:none;}.cls-2{clip-path:url(#clip-path);}.cls-3{fill:#c42127;fill-rule:evenodd;}</style><clipPath id="clip-path" transform="translate(-145.14 -51.68)"><rect class="cls-1" x="145.14" y="51.68" width="28" height="20.69"/></clipPath></defs><g class="cls-2"><path class="cls-3" d="M146,51.68h26.2a.91.91,0,0,1,.92.93V71.45a.93.93,0,0,1-.93.93H146.07a1,1,0,0,1-.93-.94V52.61a.93.93,0,0,1,.86-.93Zm0,.9h0v0h0V57h26.16v.9H146.05V71.45h26.17a0,0,0,0,0,0,0V52.61H146.06ZM150,63.52h6.11v.9H150Zm-.06,2.61h2.68V67h-2.68Z" transform="translate(-145.14 -51.68)"/></g></svg>