<svg id="Capa_1" data-name="Capa 1" xmlns="http://www.w3.org/2000/svg" viewBox="0 0 403 208"><defs><style>.cls-1{fill:#c42127;}</style></defs><path class="cls-1" d="M95.62,88.05A6.59,6.59,0,1,0,89,81.46,6.6,6.6,0,0,0,95.62,88.05Zm0-12.32a5.73,5.73,0,1,1-5.72,5.73A5.74,5.74,0,0,1,95.62,75.73Z"/><path class="cls-1" d="M104.71,89.13a1.91,1.91,0,0,0-1.21-.57,1.63,1.63,0,0,0-1,.36l-5.26,3.41-.63.14h0a.54.54,0,0,0,0-.1,1.89,1.89,0,0,0-.09-.21l0-.06a2,2,0,0,0-.87-.75h0l-.17-.07,0,0a1.27,1.27,0,0,0-.18-.06h0l-.08,0A27.27,27.27,0,0,1,90.69,90L90.58,90h0a8,8,0,0,0-7.45-.31l-4.24-1a.42.42,0,0,0-.35.06.42.42,0,0,0-.18.3l-.83,6.28a.42.42,0,0,0,.33.47l5.82,1.37,7.46,1.41,1.61.31a3.27,3.27,0,0,0,.63.07,2.55,2.55,0,0,0,1.76-.67c4.68-3.14,5.14-3.44,5.21-3.5l4.42-4a1.07,1.07,0,0,0,.34-.79A1,1,0,0,0,104.71,89.13Zm-.57.91-4.4,4L94.58,97.5s0,0-.06,0a1.67,1.67,0,0,1-1.19.46A2.11,2.11,0,0,1,92.9,98h0l-1.65-.31-7.41-1.4h0L78.38,95l.71-5.42,3.86.93a.61.61,0,0,0,.4,0,7.22,7.22,0,0,1,6.74.24l.06,0h0l.12.07.06,0A27,27,0,0,0,94.91,92l.14,0h0l.13.06h0a1.13,1.13,0,0,1,.5.42.1.1,0,0,0,0,0s0,0,0,.06,0,0,0,0a.6.6,0,0,1,0,.23,0,0,0,0,0,0,0,.58.58,0,0,1-.11.25.71.71,0,0,1-.57.25c-3.4-.15-6.95,0-7.11,0a.44.44,0,0,0,.18.85c.28,0,3.46-.16,6.89,0a1.56,1.56,0,0,0,1.28-.58,1.65,1.65,0,0,0,.22-.36l1-.22a.42.42,0,0,0,.14-.06L103,89.65l0,0a.84.84,0,0,1,.48-.2,1.18,1.18,0,0,1,.64.35.18.18,0,0,1,.06.13A.14.14,0,0,1,104.14,90Z"/><path class="cls-1" d="M93.85,85.41h0l.36.14h0l.21.06.19.05h.1l.38,0h0v.34a.43.43,0,0,0,.43.43A.43.43,0,0,0,96,86.1v-.38a3,3,0,0,0,.86-.3,2.42,2.42,0,0,0,1.21-1.72,2.08,2.08,0,0,0-.62-2h0a4.39,4.39,0,0,0-.65-.48c-.15-.1-.53-.3-.8-.44V78.07l.21,0,.32.13a1.34,1.34,0,0,1,.31.17.43.43,0,0,0,.5-.71,2.19,2.19,0,0,0-.48-.26h0l-.36-.13-.07,0-.32-.06-.09,0v-.37a.43.43,0,1,0-.86,0v.37a2.27,2.27,0,0,0-.72.25,2,2,0,0,0-1,1.41,1.82,1.82,0,0,0,.33,1.45,3.91,3.91,0,0,0,1.37,1v3.61l-.29,0h-.06l-.15,0-.16-.05-.33-.13a2.05,2.05,0,0,1-.43-.26.43.43,0,0,0-.61.06.44.44,0,0,0,.06.61A3.33,3.33,0,0,0,93.85,85.41Zm2.54-3.5a3.17,3.17,0,0,1,.52.39,1.26,1.26,0,0,1,.38,1.22,1.61,1.61,0,0,1-.79,1.14,2.2,2.2,0,0,1-.45.17v-3.1A2.54,2.54,0,0,1,96.39,81.91ZM94.53,79.8a.93.93,0,0,1-.19-.77,1.19,1.19,0,0,1,.56-.83,1.1,1.1,0,0,1,.29-.12V80.3A2.31,2.31,0,0,1,94.53,79.8Z"/></svg>