<svg id="Capa_1" data-name="Capa 1" xmlns="http://www.w3.org/2000/svg" viewBox="0 0 27.59 24"><defs><style>.cls-1{fill:#c42127;}</style></defs><path class="cls-1" d="M300.17,131.67a6.59,6.59,0,1,0-6.59-6.59A6.6,6.6,0,0,0,300.17,131.67Zm0-12.32a5.73,5.73,0,1,1-5.73,5.73A5.74,5.74,0,0,1,300.17,119.35Z" transform="translate(-282.02 -118.49)"/><path class="cls-1" d="M309.25,132.74a1.94,1.94,0,0,0-1.21-.56,1.63,1.63,0,0,0-1,.36l-5.26,3.4-.63.15h0l0-.1a1.89,1.89,0,0,0-.09-.21l-.05-.06a1.86,1.86,0,0,0-.87-.75,0,0,0,0,0,0,0l-.17-.08h0a1.27,1.27,0,0,0-.18-.06h0l-.07,0a27,27,0,0,1-4.41-1.14l-.11-.06h0l0,0a8,8,0,0,0-7.44-.3l-4.25-1a.45.45,0,0,0-.34.07.46.46,0,0,0-.19.3l-.82,6.28a.42.42,0,0,0,.33.47l5.82,1.36c.17,0,1.13.23,7.46,1.42l1.61.31a3.27,3.27,0,0,0,.63.07,2.52,2.52,0,0,0,1.76-.68l5.21-3.49,4.42-4a1,1,0,0,0,.34-.78A1.1,1.1,0,0,0,309.25,132.74Zm-.57.91-4.39,4-5.17,3.46-.06,0a1.68,1.68,0,0,1-1.18.46,1.88,1.88,0,0,1-.43,0,0,0,0,0,1,0,0l-1.65-.31-7.41-1.4h0l-5.44-1.28.71-5.42,3.85.93a.64.64,0,0,0,.41,0,7.17,7.17,0,0,1,6.73.24l.07,0h0l.13.07.06,0a27.56,27.56,0,0,0,4.57,1.19l.14,0h0l.12,0h0a1.13,1.13,0,0,1,.5.42l0,.05,0,.06s0,0,0,0a.66.66,0,0,1,0,.24v0a.74.74,0,0,1-.11.25.72.72,0,0,1-.57.25c-3.41-.15-6.95,0-7.11,0a.45.45,0,0,0-.3.54.44.44,0,0,0,.47.31c.28,0,3.47-.16,6.9,0a1.56,1.56,0,0,0,1.28-.58,1.31,1.31,0,0,0,.21-.36l1-.22a.42.42,0,0,0,.14-.06l5.33-3.45,0,0a.78.78,0,0,1,.48-.2,1.18,1.18,0,0,1,.64.35.16.16,0,0,1,.05.13S308.73,133.61,308.68,133.65Z" transform="translate(-282.02 -118.49)"/><path class="cls-1" d="M298.4,129h0l.37.13s0,0,0,0l.2.06.2.05h.1l.38.05h0v.34a.43.43,0,0,0,.86,0v-.39a2.73,2.73,0,0,0,.86-.29,2.44,2.44,0,0,0,1.21-1.72,2.09,2.09,0,0,0-.62-2h0a4.39,4.39,0,0,0-.65-.48c-.15-.1-.53-.3-.8-.45v-2.68l.21,0,.32.13a1.43,1.43,0,0,1,.3.16.44.44,0,0,0,.61-.09.45.45,0,0,0-.1-.61,2.77,2.77,0,0,0-.48-.26,0,0,0,0,0,0,0l-.36-.13-.07,0-.33-.06-.08,0v-.37a.43.43,0,0,0-.43-.43.43.43,0,0,0-.43.43v.37a2,2,0,0,0-.72.25,2,2,0,0,0-1,1.41,1.83,1.83,0,0,0,.33,1.45,3.81,3.81,0,0,0,1.37,1v3.61l-.29,0h-.06l-.16,0-.15,0-.34-.13a2,2,0,0,1-.42-.26.43.43,0,0,0-.61.06.42.42,0,0,0,.06.6A2.7,2.7,0,0,0,298.4,129Zm2.53-3.5a3.52,3.52,0,0,1,.53.38,1.26,1.26,0,0,1,.37,1.23,1.6,1.6,0,0,1-.79,1.14,1.92,1.92,0,0,1-.44.17v-3.1A1.88,1.88,0,0,1,300.93,125.53Zm-1.86-2.11a1,1,0,0,1-.18-.77,1.2,1.2,0,0,1,.56-.84,1.6,1.6,0,0,1,.29-.11v2.22A2.27,2.27,0,0,1,299.07,123.42Z" transform="translate(-282.02 -118.49)"/></svg>