<svg id="Capa_1" data-name="Capa 1" xmlns="http://www.w3.org/2000/svg" viewBox="0 0 21.09 16.74"><defs><style>.cls-1{fill:#c42127;}</style></defs><path class="cls-1" d="M171,99.14a.4.4,0,0,0-.4.39.39.39,0,0,0,.4.39Zm17.41.78a.39.39,0,0,0,.39-.39.4.4,0,0,0-.39-.39Zm-16,1.4a.38.38,0,0,0-.39.39.39.39,0,0,0,.39.39Zm14.51.78a.4.4,0,0,0,.39-.39.39.39,0,0,0-.39-.39Zm2.9-12.33a.4.4,0,0,0,0-.79Zm-3.24-4a.39.39,0,0,0-.78,0ZM169.49,89a.4.4,0,0,0,0,.79Zm4-3.23a.38.38,0,0,0-.39-.39.39.39,0,0,0-.39.39Zm16.3,8.37a.4.4,0,0,0,.39-.39.39.39,0,0,0-.39-.39Zm-4,3.24a.39.39,0,0,0,.78,0Zm-16.3-4a.39.39,0,0,0-.39.39.4.4,0,0,0,.39.39Zm3.24,4a.4.4,0,0,0,.39.39.39.39,0,0,0,.39-.39Zm16.35-.4H170.22v.79h18.86Zm-18.86,0a.34.34,0,0,1-.34-.33h-.78a1.12,1.12,0,0,0,1.12,1.12Zm-.34-.33V86.47h-.78V96.63Zm0-10.16a.34.34,0,0,1,.34-.33v-.78a1.12,1.12,0,0,0-1.12,1.11Zm.34-.33h18.86v-.78H170.22Zm18.86,0a.34.34,0,0,1,.34.33h.78a1.12,1.12,0,0,0-1.12-1.11Zm.34.33V96.63h.78V86.47Zm0,10.16a.34.34,0,0,1-.34.33v.79a1.12,1.12,0,0,0,1.12-1.12ZM171,99.92h17.41v-.78H171Zm1.45,2.18h14.51v-.78H172.4Zm10.49-10.55a3.24,3.24,0,0,1-3.24,3.24v.78a4,4,0,0,0,4-4Zm-3.24,3.24a3.24,3.24,0,0,1-3.24-3.24h-.78a4,4,0,0,0,4,4Zm-3.24-3.24a3.24,3.24,0,0,1,3.24-3.24v-.78a4,4,0,0,0-4,4Zm3.24-3.24a3.24,3.24,0,0,1,3.24,3.24h.78a4,4,0,0,0-4-4Zm10.16.67a3.26,3.26,0,0,1-2.29-.94l-.55.55a4,4,0,0,0,2.84,1.18ZM187.52,88a3.23,3.23,0,0,1-1-2.29h-.78A4,4,0,0,0,187,88.59Zm-18,1.73a4.07,4.07,0,0,0,1.54-.31l-.3-.72a3.26,3.26,0,0,1-1.24.24Zm1.54-.31a4.11,4.11,0,0,0,1.31-.87l-.56-.55a3.12,3.12,0,0,1-1.05.7Zm1.31-.87a4.24,4.24,0,0,0,.87-1.3l-.73-.3a3.22,3.22,0,0,1-.7,1.05Zm.87-1.3a4.06,4.06,0,0,0,.3-1.54h-.78a3.16,3.16,0,0,1-.25,1.24Zm16.6,6A4,4,0,0,0,187,94.51l.55.56a3.23,3.23,0,0,1,2.29-.95ZM187,94.51a4,4,0,0,0-1.18,2.85h.78a3.21,3.21,0,0,1,1-2.29Zm-17.48-.39a3.26,3.26,0,0,1,1.24.24l.3-.72a4.06,4.06,0,0,0-1.54-.3Zm1.24.24a3.3,3.3,0,0,1,1.05.71l.56-.56a4.11,4.11,0,0,0-1.31-.87Zm1.05.71a3.12,3.12,0,0,1,.7,1.05l.73-.3a4.28,4.28,0,0,0-.87-1.31Zm.7,1.05a3.09,3.09,0,0,1,.25,1.24h.78a4.06,4.06,0,0,0-.3-1.54Z" transform="translate(-169.1 -85.36)"/></svg>